<svg width="42" height="42" viewBox="0 0 42 42" fill="none" xmlns="http://www.w3.org/2000/svg">
<path d="M41.9999 13.6498C41.9999 20.4958 36.96 26.1447 30.408 27.1317V27.0057C29.757 18.8578 23.142 12.2428 14.931 11.5918H14.868C15.855 5.03985 21.5041 -0.00012207 28.35 -0.00012207C35.889 -0.00012207 41.9999 6.11085 41.9999 13.6498Z" fill="#292D32"/>
<path d="M27.2579 27.2576C26.7329 20.6007 21.3989 15.2667 14.7419 14.7417C14.3849 14.7207 14.0069 14.6997 13.6499 14.6997C6.11097 14.6997 0 20.8107 0 28.3496C0 35.8886 6.11097 41.9996 13.6499 41.9996C21.1889 41.9996 27.2999 35.8886 27.2999 28.3496C27.2999 27.9926 27.2789 27.6146 27.2579 27.2576ZM15.4979 30.1976L13.6499 33.5996L11.8019 30.1976L8.39996 28.3496L11.8019 26.5016L13.6499 23.0997L15.4979 26.5016L18.8999 28.3496L15.4979 30.1976Z" fill="#292D32"/>
</svg>
