<?xml version="1.0" encoding="UTF-8" standalone="no"?>
<!-- Uploaded to: SVG Repo, www.svgrepo.com, Generator: SVG Repo Mixer Tools -->

<svg
   fill="#000000"
   width="800px"
   height="800px"
   viewBox="0 0 1920 1920"
   version="1.1"
   id="svg42"
   sodipodi:docname="info.svg"
   inkscape:version="1.2.2 (b0a8486541, 2022-12-01)"
   xmlns:inkscape="http://www.inkscape.org/namespaces/inkscape"
   xmlns:sodipodi="http://sodipodi.sourceforge.net/DTD/sodipodi-0.dtd"
   xmlns="http://www.w3.org/2000/svg"
   xmlns:svg="http://www.w3.org/2000/svg">
  <defs
     id="defs46" />
  <sodipodi:namedview
     id="namedview44"
     pagecolor="#505050"
     bordercolor="#eeeeee"
     borderopacity="1"
     inkscape:showpageshadow="0"
     inkscape:pageopacity="0"
     inkscape:pagecheckerboard="0"
     inkscape:deskcolor="#505050"
     showgrid="false"
     inkscape:zoom="0.37344077"
     inkscape:cx="-346.77521"
     inkscape:cy="425.77033"
     inkscape:window-width="1920"
     inkscape:window-height="1011"
     inkscape:window-x="0"
     inkscape:window-y="32"
     inkscape:window-maximized="1"
     inkscape:current-layer="layer1" />
  <path
     d="m 960,0 c 530.193,0 960,429.807 960,960 0,530.193 -429.807,960 -960,960 C 429.807,1920 0,1490.193 0,960 0,429.807 429.807,0 960,0 Z m 0,101.053 c -474.384,0 -858.947,384.563 -858.947,858.947 0,474.384 384.563,858.947 858.947,858.947 474.384,0 858.947,-384.563 858.947,-858.947 0,-474.384 -384.563,-858.947 -858.947,-858.947 z"
     fill-rule="evenodd"
     id="path40"
     style="fill:#95fea1;fill-opacity:1"
     sodipodi:nodetypes="ssssssssss" />
  <g
     inkscape:groupmode="layer"
     id="layer1"
     inkscape:label="Layer 1">
    <path
       d="m 901.00273,766.55873 c -70.88899,33.02348 -131.18066,89.97048 -191.51816,173.23157 -8.60501,11.8731 -8.95247,19.0874 -0.11249,25.4684 6.2144,4.4863 9.82571,3.0514 18.87817,-6.606 1.21072,-1.3016 1.21072,-1.3016 2.44977,-2.6448 7.82507,-8.4741 14.12863,-15.6651 27.59316,-31.3011 44.48904,-51.66586 66.22027,-72.9313 99.99284,-92.38025 29.22634,-16.83005 54.91136,7.9034 50.02017,39.55534 -1.37237,8.88581 -3.73547,15.44351 -9.82489,29.52381 -2.42226,5.6011 -3.44383,8.0376 -4.57955,11.0239 -10.97644,28.8556 -20.2248,52.9256 -39.59534,103.1984 l -0.92658,2.4048 c -5.85685,15.2005 -5.85777,15.2002 -11.7097,30.397 -25.37255,65.942 -40.76856,106.3781 -56.6537,149.1423 l -0.93157,2.5064 c -2.84098,7.6255 -5.67096,15.255 -8.49002,22.8886 -18.20157,49.3603 -28.6114,81.433 -36.52813,115.5455 -1.23655,5.3079 -1.23655,5.3079 -2.48976,10.7032 -4.46041,19.2964 -6.84767,31.7311 -8.18255,44.5123 -2.30811,22.0996 -0.45245,40.1962 6.49271,55.4055 7.85924,17.2109 24.74511,29.5222 44.01158,32.3186 32.09523,4.6595 63.06307,4.3279 89.58718,-1.7065 14.92689,-3.3939 29.69546,-7.8368 44.1874,-13.2838 41.95594,-15.7751 82.37621,-40.3894 121.52663,-72.9262 34.255,-28.5473 66.6669,-63.3273 100.6469,-106.5497 2.9622,-3.743 2.9622,-3.743 5.9144,-7.4793 10.2641,-13.0879 15.2919,-21.5879 17.1692,-30.5662 2.0415,-9.7474 -6.1985,-19.6265 -12.7846,-16.321 -3.2555,1.6332 -6.6602,5.0146 -11.8488,11.5589 -3.7113,4.7621 -5.7286,7.3077 -7.7476,9.5941 -8.0584,9.1241 -16.5676,18.4624 -25.7867,28.3289 -15.1994,16.2593 -30.6429,32.1703 -53.0415,54.8189 -11.4073,11.5356 -25.7542,21.6204 -41.1794,29.2022 -24.68929,12.1313 -46.96047,-3.1597 -44.28573,-30.5262 1.76483,-18.0658 6.14107,-36.7432 12.68544,-54.8006 14.2953,-39.4687 25.98333,-71.3756 51.84169,-141.693 11.2147,-30.497 16.0568,-43.6707 22.1045,-60.1616 17.93,-48.872 32.2436,-88.2149 45.8623,-126.1753 16.8233,-46.8914 26.3274,-81.84548 30.7278,-117.94116 3.3222,-27.22487 -4.2521,-53.26319 -21.5262,-71.16396 -19.1532,-19.84475 -46.3956,-28.98637 -80.3248,-28.58474 -37.54053,0.44579 -81.3313,12.71211 -121.62407,31.48279 z M 1157.9621,442.90501 c -67.4627,-26.24747 -148.414,18.84484 -161.96938,90.26627 -9.82822,51.765 9.50908,96.45735 48.97858,115.17638 78.2408,37.10558 172.1392,-22.35035 172.1434,-109.01114 0,-48.20784 -20.5855,-81.4238 -59.1526,-96.43151 z"
       style="fill:#95fea1;fill-opacity:1;fill-rule:evenodd;stroke-width:0.833253"
       id="path953" />
  </g>
</svg>
